HIERARCHY
ROOT Joint1
{
	OFFSET 0.000000 0.000000 0.000000
	CHANNELS 6 Xposition Yposition Zposition Xrotation Yrotation Zrotation
	JOINT Joint2
	{
		OFFSET -0.000000 0.000000 1.456275
		CHANNELS 6 Xposition Yposition Zposition Xrotation Yrotation Zrotation
		JOINT Joint3
		{
			OFFSET -0.000000 0.000002 1.471446
			CHANNELS 6 Xposition Yposition Zposition Xrotation Yrotation Zrotation
			JOINT Joint4
			{
				OFFSET 0.625745 0.000000 0.917755
				CHANNELS 6 Xposition Yposition Zposition Xrotation Yrotation Zrotation
				JOINT Joint5
				{
					OFFSET -0.629534 0.000001 0.940221
					CHANNELS 6 Xposition Yposition Zposition Xrotation Yrotation Zrotation
					JOINT Joint6
					{
						OFFSET -0.000001 0.113772 1.960660
						CHANNELS 6 Xposition Yposition Zposition Xrotation Yrotation Zrotation
						JOINT Joint7
						{
							OFFSET -0.669733 -0.113771 0.388340
							CHANNELS 6 Xposition Yposition Zposition Xrotation Yrotation Zrotation
							End Site
							{
								OFFSET 0.005509 0.005509 0.438980
							}
						}
					}
				}
			}
		}
	}
}
MOTION
Frames: 17
Frame Time: 0.041667
0.000000 0.000000 0.000000 -0.000000 1.019410 44.806635 -0.000000 0.000000 1.456275 -0.000003 -47.592215 0.000001 -0.000000 0.000002 1.471446 0.000000 -1.133464 -28.954524 0.625744 0.000001 0.917755 0.000002 149.654349 -0.000001 -0.629534 0.000001 0.940221 0.000000 1.709739 31.004817 -0.000001 0.113772 1.960660 -88.303896 75.943979 -0.000010 -0.669733 -0.113771 0.388339 -0.926638 3.541997 147.532291 
0.000000 0.000000 0.000000 -0.000000 1.019410 46.152363 -0.000000 -0.000000 1.456275 0.000000 -47.670571 -0.000002 -0.000000 0.000002 1.471446 -0.000001 -1.133462 -29.822956 0.625745 0.000000 0.917755 0.000008 150.093680 0.000003 -0.629533 0.000001 0.940221 -0.000000 1.709738 31.936219 -0.000001 0.113772 1.960660 -88.303889 75.522740 -0.000009 -0.669733 -0.113771 0.388339 -0.933179 3.540524 147.909686 
0.000000 0.000000 0.000000 -0.000000 1.019410 47.565215 -0.000000 0.000000 1.456275 0.000003 -47.752820 0.000003 -0.000000 0.000002 1.471446 -0.000002 -1.133461 -30.734707 0.625744 0.000000 0.917755 0.000003 150.554909 -0.000001 -0.629533 0.000001 0.940221 0.000000 1.709737 32.914091 -0.000001 0.113772 1.960660 -88.303903 75.080513 -0.000002 -0.669733 -0.113771 0.388340 -0.940031 3.538926 148.305919 
0.000000 0.000000 0.000000 -0.000000 1.019410 49.009981 -0.000000 0.000000 1.456275 -0.000001 -47.836944 0.000004 -0.000000 0.000002 1.471446 -0.000001 -1.133462 -31.667052 0.625745 0.000000 0.917755 0.000006 151.026547 -0.000001 -0.629534 0.000001 0.940221 -0.000000 1.709736 33.914041 -0.000001 0.113772 1.960661 -88.303909 74.628266 -0.000002 -0.669733 -0.113771 0.388340 -0.947024 3.537249 148.711127 
0.000000 0.000000 0.000000 -0.000000 1.019410 50.452289 -0.000000 0.000000 1.456275 -0.000001 -47.920921 0.000001 -0.000000 0.000002 1.471446 -0.000001 -1.133460 -32.597805 0.625745 0.000000 0.917755 0.000008 151.497393 0.000004 -0.629533 0.000001 0.940221 0.000002 1.709733 34.912287 -0.000001 0.113772 1.960660 -88.303889 74.176797 -0.000002 -0.669733 -0.113771 0.388340 -0.954005 3.535529 149.115638 
0.000000 0.000000 0.000000 -0.000000 1.019410 51.861022 -0.000000 0.000000 1.456275 0.000003 -48.002942 -0.000003 -0.000000 0.000002 1.471446 -0.000000 -1.133463 -33.506900 0.625745 0.000001 0.917755 0.000006 151.957270 0.000000 -0.629534 0.000001 0.940220 0.000001 1.709733 35.887303 -0.000001 0.113772 1.960660 -88.303903 73.735840 -0.000014 -0.669733 -0.113771 0.388340 -0.960807 3.533797 149.510710 
0.000000 0.000000 0.000000 -0.000000 1.019410 53.205924 -0.000000 0.000000 1.456275 0.000000 -48.081246 0.000000 -0.000000 0.000002 1.471446 -0.000000 -1.133461 -34.374798 0.625745 0.000001 0.917755 0.000003 152.396315 -0.000001 -0.629534 0.000001 0.940221 -0.000001 1.709737 36.818131 -0.000001 0.113772 1.960661 -88.303903 73.314868 -0.000011 -0.669733 -0.113771 0.388340 -0.967283 3.532099 149.887900 
0.000000 0.000000 0.000000 -0.000000 1.019410 54.456726 -0.000000 0.000000 1.456275 -0.000002 -48.154066 0.000002 -0.000000 0.000002 1.471446 -0.000004 -1.133460 -35.181973 0.625745 0.000001 0.917755 0.000003 152.804651 0.000001 -0.629533 0.000001 0.940221 0.000002 1.709735 37.683848 -0.000001 0.113772 1.960661 -88.303882 72.923348 -0.000011 -0.669733 -0.113771 0.388340 -0.973306 3.530486 150.238699 
0.000000 0.000000 0.000000 -0.000000 1.019410 55.596469 -0.000000 0.000000 1.456275 0.000001 -48.220429 0.000001 -0.000001 0.000002 1.471446 -0.000005 -1.133464 -35.917479 0.625745 0.000001 0.917755 0.000003 153.176732 -0.000000 -0.629534 0.000001 0.940221 0.000002 1.709738 38.472680 -0.000001 0.113772 1.960661 -88.303889 72.566594 0.000001 -0.669733 -0.113771 0.388339 -0.978776 3.528978 150.558352 
0.000000 0.000000 0.000000 -0.000000 1.019410 56.661419 -0.000000 0.000000 1.456275 0.000002 -48.282433 0.000004 -0.000000 0.000002 1.471446 -0.000003 -1.133462 -36.604719 0.625745 0.000000 0.917755 0.000008 153.524389 -0.000001 -0.629534 0.000001 0.940221 -0.000003 1.709736 39.209763 -0.000001 0.113772 1.960660 -88.303896 72.233246 -0.000002 -0.669733 -0.113771 0.388339 -0.983882 3.527545 150.857036 
0.000000 0.000000 0.000000 -0.000000 1.019410 57.701179 -0.000000 0.000000 1.456275 0.000003 -48.342972 -0.000000 -0.000000 0.000002 1.471446 -0.000000 -1.133462 -37.275696 0.625744 0.000000 0.917755 0.000004 153.863808 -0.000002 -0.629533 0.000001 0.940221 -0.000000 1.709735 39.929402 -0.000002 0.113772 1.960660 -88.303903 71.907781 -0.000013 -0.669733 -0.113771 0.388340 -0.988856 3.526118 151.148630 
0.000000 0.000000 0.000000 -0.000000 1.019410 58.765336 -0.000000 0.000000 1.456275 -0.000003 -48.404936 -0.000002 -0.000000 0.000002 1.471446 -0.000002 -1.133463 -37.962427 0.625744 0.000000 0.917755 0.000005 154.211205 0.000001 -0.629533 0.000001 0.940220 -0.000002 1.709733 40.665918 -0.000001 0.113772 1.960661 -88.303896 71.574672 -0.000001 -0.669733 -0.113771 0.388340 -0.993948 3.524634 151.447082 
0.000000 0.000000 0.000000 -0.000000 1.019410 59.903471 -0.000000 -0.000000 1.456275 0.000002 -48.471199 0.000005 -0.000001 0.000002 1.471446 -0.000002 -1.133465 -38.696891 0.625744 0.000001 0.917754 -0.000004 154.582754 -0.000001 -0.629534 0.000001 0.940220 0.000002 1.709737 41.453648 -0.000002 0.113773 1.960660 -88.303903 71.218430 -0.000014 -0.669733 -0.113771 0.388340 -0.999381 3.523016 151.766271 
0.000000 0.000000 0.000000 -0.000000 1.019410 61.152091 -0.000000 0.000000 1.456275 0.000001 -48.543893 0.000001 -0.000000 0.000002 1.471446 0.000000 -1.133465 -39.502655 0.625745 0.000000 0.917755 0.000002 154.990366 -0.000001 -0.629534 0.000001 0.940221 0.000001 1.709737 42.317844 -0.000001 0.113773 1.960661 -88.303889 70.827593 -0.000015 -0.669733 -0.113771 0.388339 -1.005333 3.521208 152.116441 
0.000000 0.000000 0.000000 -0.000000 1.019410 62.495357 -0.000000 0.000000 1.456275 -0.000002 -48.622098 0.000004 -0.000000 0.000002 1.471446 -0.000002 -1.133462 -40.369505 0.625745 0.000000 0.917755 0.000005 155.428878 -0.000002 -0.629534 0.000001 0.940221 0.000002 1.709737 43.247549 -0.000001 0.113772 1.960661 -88.303909 70.407127 0.000003 -0.669733 -0.113771 0.388339 -1.011722 3.519221 152.493153 
0.000000 0.000000 0.000000 -0.000000 1.019410 63.904370 -0.000000 -0.000000 1.456275 0.000001 -48.704139 -0.000001 -0.000000 0.000002 1.471446 -0.000001 -1.133461 -41.278774 0.625745 0.000000 0.917755 0.000003 155.888864 -0.000001 -0.629534 0.000001 0.940221 0.000001 1.709740 44.222760 -0.000001 0.113772 1.960661 -88.303896 69.966074 -0.000000 -0.669733 -0.113771 0.388340 -1.018409 3.517093 152.888334 
0.000000 0.000000 0.000000 -0.000000 1.019410 65.350212 -0.000000 0.000000 1.456275 -0.000001 -48.788318 -0.000000 -0.000000 0.000002 1.471446 -0.000002 -1.133460 -42.211812 0.625745 0.000001 0.917755 0.000002 156.360857 -0.000002 -0.629534 0.000001 0.940221 0.000001 1.709737 45.223454 -0.000001 0.113772 1.960660 -88.303889 69.513519 -0.000016 -0.669733 -0.113771 0.388339 -1.025253 3.514859 153.293815 
